<svg height="511pt" viewBox="1 -47 511.999 511" width="511pt" xmlns="http://www.w3.org/2000/svg"><path d="M161.02 416.605c193.218 0 298.878-160.074 298.878-298.878 0-4.547-.093-9.075-.296-13.579A213.729 213.729 0 00512 49.754c-18.82 8.367-39.078 13.996-60.324 16.539 21.687-13.008 38.34-33.578 46.191-58.102a210.741 210.741 0 01-66.703 25.496C411.996 13.27 384.704.5 354.484.5c-58.007 0-105.05 47.043-105.05 105.031 0 8.246.921 16.262 2.722 23.953C164.852 125.09 87.434 83.293 35.63 19.73c-9.02 15.524-14.223 33.56-14.223 52.801 0 36.442 18.547 68.617 46.746 87.438a104.248 104.248 0 01-47.574-13.137c-.015.441-.015.871-.015 1.34 0 50.875 36.207 93.351 84.277 102.976a105.372 105.372 0 01-27.7 3.696c-6.757 0-13.343-.664-19.745-1.895 13.375 41.738 52.156 72.11 98.132 72.961-35.953 28.18-81.246 44.965-130.468 44.965-8.47 0-16.836-.484-25.059-1.453 46.488 29.797 101.695 47.187 161.023 47.187" fill="#1da1f2"/></svg>